<svg xmlns="http://www.w3.org/2000/svg" viewBox="0 0 300 300">
  <rect width="300" height="300" rx="40" fill="#1a56db"/>
  <rect x="40" y="145" width="220" height="100" rx="8" fill="white"/>
  <rect x="52" y="245" width="18" height="28" rx="4" fill="white"/>
  <rect x="230" y="245" width="18" height="28" rx="4" fill="white"/>
  <rect x="70" y="90" width="160" height="80" rx="6" fill="white" opacity="0.95"/>
  <rect x="70" y="90" width="160" height="20" rx="6" fill="#1240a0"/>
  <rect x="70" y="104" width="160" height="6" fill="#1240a0"/>
  <rect x="80" y="118" width="14" height="12" rx="2" fill="#1a56db" opacity="0.3"/>
  <rect x="100" y="118" width="14" height="12" rx="2" fill="#1a56db" opacity="0.3"/>
  <rect x="120" y="118" width="14" height="12" rx="2" fill="#1a56db" opacity="0.3"/>
  <rect x="140" y="118" width="14" height="12" rx="2" fill="#1a56db"/>
  <rect x="160" y="118" width="14" height="12" rx="2" fill="#1a56db" opacity="0.3"/>
  <rect x="180" y="118" width="14" height="12" rx="2" fill="#1a56db" opacity="0.3"/>
  <rect x="80" y="136" width="14" height="12" rx="2" fill="#1a56db" opacity="0.3"/>
  <rect x="100" y="136" width="14" height="12" rx="2" fill="#1a56db" opacity="0.3"/>
  <rect x="120" y="136" width="14" height="12" rx="2" fill="#1a56db" opacity="0.3"/>
  <rect x="140" y="136" width="14" height="12" rx="2" fill="#1a56db" opacity="0.3"/>
  <rect x="160" y="136" width="14" height="12" rx="2" fill="#1a56db" opacity="0.3"/>
  <rect x="180" y="136" width="14" height="12" rx="2" fill="#1a56db" opacity="0.3"/>
  <circle cx="215" cy="200" r="22" fill="#22c55e"/>
  <path d="M205 200 L212 208 L226 192" fill="none" stroke="white" stroke-width="3.5" stroke-linecap="round" stroke-linejoin="round"/>
  <rect x="70" y="160" width="100" height="60" rx="4" fill="#e8f0fe"/>
  <rect x="112" y="220" width="16" height="8" rx="2" fill="#c0d0f0"/>
  <ellipse cx="200" cy="190" rx="10" ry="13" fill="#c0d0f0"/>
  <line x1="200" y1="183" x2="200" y2="189" stroke="#1a56db" stroke-width="1.5" stroke-linecap="round"/>
</svg>
